<?xml version="1.0" encoding="UTF-8" standalone="no"?>
<!DOCTYPE svg PUBLIC "-//W3C//DTD SVG 1.1//EN" "http://www.w3.org/Graphics/SVG/1.1/DTD/svg11.dtd">
<svg width="100%" height="100%" viewBox="0 0 112 31" version="1.1" xmlns="http://www.w3.org/2000/svg" xmlns:xlink="http://www.w3.org/1999/xlink" xml:space="preserve" xmlns:serif="http://www.serif.com/" style="fill-rule:evenodd;clip-rule:evenodd;stroke-linecap:round;stroke-linejoin:round;stroke-miterlimit:1.5;">
    <g transform="matrix(0.264368,0,0,0.264368,-58.3341,-427.056)">
        <g id="LogoVertical">
            <g transform="matrix(1,0,0,1,-272.419,718.2)">
                <circle cx="539.815" cy="952.965" r="33.344" style="stroke:rgb(230,174,60);stroke-width:9px;"/>
            </g>
            <g transform="matrix(0.600451,0,0,0.600451,208.581,1162.89)">
                <g transform="matrix(1,0,0,1,191.537,871.76)">
                    <g transform="matrix(64.951,0,0,64.951,0,0)">
                        <path d="M0.928,-0.699L0.73,-0L0.652,-0L0.476,-0.596L0.296,-0L0.22,0.001L0.026,-0.699L0.101,-0.699L0.261,-0.086L0.44,-0.699L0.518,-0.699L0.692,-0.086L0.853,-0.699L0.928,-0.699Z" style="fill:rgb(230,174,60);fill-rule:nonzero;"/>
                    </g>
                    <g transform="matrix(64.951,0,0,64.951,62.0282,0)">
                        <rect x="0.08" y="-0.699" width="0.07" height="0.699" style="fill:rgb(230,174,60);fill-rule:nonzero;"/>
                    </g>
                    <g transform="matrix(64.951,0,0,64.951,76.902,0)">
                        <path d="M0.489,-0.699L0.489,-0.641L0.295,-0.641L0.295,-0L0.225,-0L0.225,-0.641L0.03,-0.641L0.03,-0.699L0.489,-0.699Z" style="fill:rgb(230,174,60);fill-rule:nonzero;"/>
                    </g>
                    <g transform="matrix(64.951,0,0,64.951,110.677,0)">
                        <path d="M0.599,-0.699L0.599,-0L0.529,-0L0.529,-0.327L0.15,-0.327L0.15,-0L0.08,-0L0.08,-0.699L0.15,-0.699L0.15,-0.385L0.529,-0.385L0.529,-0.699L0.599,-0.699Z" style="fill:rgb(230,174,60);fill-rule:nonzero;"/>
                    </g>
                    <g transform="matrix(64.951,0,0,64.951,154.778,0)">
                        <path d="M0.394,0.007C0.329,0.007 0.271,-0.008 0.218,-0.039C0.165,-0.069 0.124,-0.111 0.094,-0.166C0.063,-0.22 0.048,-0.281 0.048,-0.35C0.048,-0.419 0.063,-0.48 0.094,-0.535C0.124,-0.589 0.165,-0.631 0.218,-0.662C0.271,-0.692 0.329,-0.707 0.394,-0.707C0.459,-0.707 0.518,-0.692 0.571,-0.662C0.624,-0.631 0.665,-0.589 0.695,-0.535C0.725,-0.48 0.74,-0.419 0.74,-0.35C0.74,-0.281 0.725,-0.22 0.695,-0.166C0.665,-0.111 0.624,-0.069 0.571,-0.039C0.518,-0.008 0.459,0.007 0.394,0.007ZM0.394,-0.054C0.446,-0.054 0.493,-0.066 0.534,-0.09C0.575,-0.114 0.608,-0.149 0.632,-0.194C0.656,-0.239 0.668,-0.291 0.668,-0.35C0.668,-0.409 0.656,-0.461 0.632,-0.506C0.608,-0.551 0.575,-0.585 0.534,-0.609C0.493,-0.633 0.446,-0.645 0.394,-0.645C0.342,-0.645 0.295,-0.633 0.254,-0.609C0.213,-0.585 0.18,-0.551 0.156,-0.506C0.132,-0.461 0.12,-0.409 0.12,-0.35C0.12,-0.291 0.132,-0.239 0.156,-0.194C0.18,-0.149 0.213,-0.114 0.254,-0.09C0.295,-0.066 0.342,-0.054 0.394,-0.054Z" style="fill:rgb(230,174,60);fill-rule:nonzero;"/>
                    </g>
                    <g transform="matrix(64.951,0,0,64.951,205.96,0)">
                        <path d="M0.147,-0.699L0.147,-0.259C0.147,-0.19 0.164,-0.138 0.197,-0.105C0.23,-0.072 0.275,-0.055 0.332,-0.055C0.389,-0.055 0.434,-0.071 0.467,-0.105C0.499,-0.137 0.515,-0.189 0.515,-0.259L0.515,-0.699L0.585,-0.699L0.585,-0.26C0.585,-0.171 0.562,-0.105 0.515,-0.06C0.467,-0.015 0.406,0.007 0.331,0.007C0.256,0.007 0.195,-0.015 0.148,-0.06C0.1,-0.105 0.077,-0.171 0.077,-0.26L0.077,-0.699L0.147,-0.699Z" style="fill:rgb(230,174,60);fill-rule:nonzero;"/>
                    </g>
                    <g transform="matrix(64.951,0,0,64.951,248.892,0)">
                        <path d="M0.489,-0.699L0.489,-0.641L0.295,-0.641L0.295,-0L0.225,-0L0.225,-0.641L0.03,-0.641L0.03,-0.699L0.489,-0.699Z" style="fill:rgb(230,174,60);fill-rule:nonzero;"/>
                    </g>
                    <g transform="matrix(64.951,0,0,64.951,300.463,0)">
                        <path d="M0.092,0.005C0.077,0.005 0.065,0 0.056,-0.01C0.046,-0.02 0.041,-0.032 0.041,-0.047C0.041,-0.062 0.046,-0.074 0.056,-0.084C0.065,-0.093 0.077,-0.098 0.092,-0.098C0.106,-0.098 0.118,-0.093 0.128,-0.084C0.137,-0.074 0.142,-0.062 0.142,-0.047C0.142,-0.032 0.137,-0.02 0.128,-0.01C0.118,0 0.106,0.005 0.092,0.005Z" style="fill:rgb(230,174,60);fill-rule:nonzero;"/>
                    </g>
                </g>
                <g transform="matrix(1,0,0,1,521.619,871.76)">
                    <g transform="matrix(64.951,0,0,64.951,0,0)">
                        <path d="M0.607,-0L0.537,-0L0.15,-0.588L0.15,-0L0.08,-0L0.08,-0.699L0.15,-0.699L0.537,-0.112L0.537,-0.699L0.607,-0.699L0.607,-0Z" style="fill:rgb(230,174,60);fill-rule:nonzero;"/>
                    </g>
                    <g transform="matrix(64.951,0,0,64.951,44.5564,0)">
                        <path d="M0.394,0.007C0.329,0.007 0.271,-0.008 0.218,-0.039C0.165,-0.069 0.124,-0.111 0.094,-0.166C0.063,-0.22 0.048,-0.281 0.048,-0.35C0.048,-0.419 0.063,-0.48 0.094,-0.535C0.124,-0.589 0.165,-0.631 0.218,-0.662C0.271,-0.692 0.329,-0.707 0.394,-0.707C0.459,-0.707 0.518,-0.692 0.571,-0.662C0.624,-0.631 0.665,-0.589 0.695,-0.535C0.725,-0.48 0.74,-0.419 0.74,-0.35C0.74,-0.281 0.725,-0.22 0.695,-0.166C0.665,-0.111 0.624,-0.069 0.571,-0.039C0.518,-0.008 0.459,0.007 0.394,0.007ZM0.394,-0.054C0.446,-0.054 0.493,-0.066 0.534,-0.09C0.575,-0.114 0.608,-0.149 0.632,-0.194C0.656,-0.239 0.668,-0.291 0.668,-0.35C0.668,-0.409 0.656,-0.461 0.632,-0.506C0.608,-0.551 0.575,-0.585 0.534,-0.609C0.493,-0.633 0.446,-0.645 0.394,-0.645C0.342,-0.645 0.295,-0.633 0.254,-0.609C0.213,-0.585 0.18,-0.551 0.156,-0.506C0.132,-0.461 0.12,-0.409 0.12,-0.35C0.12,-0.291 0.132,-0.239 0.156,-0.194C0.18,-0.149 0.213,-0.114 0.254,-0.09C0.295,-0.066 0.342,-0.054 0.394,-0.054Z" style="fill:rgb(230,174,60);fill-rule:nonzero;"/>
                    </g>
                    <g transform="matrix(64.951,0,0,64.951,95.7378,0)">
                        <rect x="0.08" y="-0.699" width="0.07" height="0.699" style="fill:rgb(230,174,60);fill-rule:nonzero;"/>
                    </g>
                    <g transform="matrix(64.951,0,0,64.951,110.612,0)">
                        <path d="M0.292,0.007C0.246,0.007 0.206,-0.001 0.171,-0.017C0.136,-0.033 0.108,-0.055 0.088,-0.084C0.068,-0.113 0.057,-0.145 0.056,-0.18L0.13,-0.18C0.133,-0.146 0.148,-0.116 0.175,-0.091C0.202,-0.065 0.241,-0.052 0.292,-0.052C0.339,-0.052 0.377,-0.064 0.405,-0.089C0.432,-0.113 0.446,-0.144 0.446,-0.181C0.446,-0.211 0.438,-0.235 0.423,-0.254C0.408,-0.272 0.389,-0.286 0.366,-0.295C0.343,-0.304 0.312,-0.313 0.272,-0.324C0.225,-0.337 0.188,-0.349 0.161,-0.361C0.134,-0.373 0.11,-0.392 0.091,-0.417C0.072,-0.442 0.062,-0.477 0.062,-0.52C0.062,-0.556 0.071,-0.588 0.09,-0.617C0.109,-0.645 0.135,-0.667 0.169,-0.683C0.203,-0.699 0.242,-0.707 0.286,-0.707C0.351,-0.707 0.403,-0.691 0.443,-0.66C0.482,-0.628 0.505,-0.587 0.511,-0.537L0.435,-0.537C0.43,-0.566 0.415,-0.591 0.388,-0.614C0.361,-0.636 0.325,-0.647 0.28,-0.647C0.238,-0.647 0.203,-0.636 0.175,-0.614C0.147,-0.591 0.133,-0.561 0.133,-0.522C0.133,-0.493 0.141,-0.469 0.156,-0.451C0.171,-0.433 0.191,-0.419 0.214,-0.41C0.237,-0.401 0.268,-0.391 0.307,-0.38C0.352,-0.367 0.389,-0.355 0.417,-0.343C0.445,-0.33 0.469,-0.311 0.488,-0.286C0.507,-0.261 0.517,-0.227 0.517,-0.184C0.517,-0.151 0.508,-0.12 0.491,-0.091C0.474,-0.062 0.448,-0.038 0.414,-0.02C0.38,-0.002 0.339,0.007 0.292,0.007Z" style="fill:rgb(230,174,60);fill-rule:nonzero;"/>
                    </g>
                    <g transform="matrix(64.951,0,0,64.951,147.764,0)">
                        <path d="M0.15,-0.642L0.15,-0.381L0.415,-0.381L0.415,-0.323L0.15,-0.323L0.15,-0.058L0.445,-0.058L0.445,-0L0.08,-0L0.08,-0.7L0.445,-0.7L0.445,-0.642L0.15,-0.642Z" style="fill:rgb(230,174,60);fill-rule:nonzero;"/>
                    </g>
                </g>
            </g>
        </g>
    </g>
</svg>
